<?xml version="1.0" encoding="utf-8"?>
<!-- Generator: Adobe Illustrator 16.0.0, SVG Export Plug-In . SVG Version: 6.00 Build 0)  -->
<!DOCTYPE svg PUBLIC "-//W3C//DTD SVG 1.1//EN" "http://www.w3.org/Graphics/SVG/1.1/DTD/svg11.dtd">
<svg version="1.1" id="Layer_1" xmlns="http://www.w3.org/2000/svg" xmlns:xlink="http://www.w3.org/1999/xlink" x="0px" y="0px"
	 width="292.593px" height="79.012px" viewBox="0 0 232.593 79.012" enable-background="new 0 0 292.593 79.012"
	 xml:space="preserve">
<g>
	<path fill-rule="evenodd" clip-rule="evenodd" fill="#ffffff" d="M47.965,17.673c8.267,0.36,16.421-0.118,24.247,1.257
		c11.91,2.092,18.61,12.631,17.325,25.229C88.315,56.091,78.996,64.511,66.96,64.535c-6.254,0.012-12.51,0-18.995,0
		C47.965,49.033,47.965,33.759,47.965,17.673z M54.702,23.939c0,11.796,0,22.921,0,34.625c4.979-0.283,9.801-0.125,14.46-0.922
		c8.302-1.414,13.25-7.883,13.238-16.407c-0.01-8.276-5.255-15.008-13.364-16.36C64.459,24.111,59.739,24.236,54.702,23.939z"/>
	<path fill-rule="evenodd" clip-rule="evenodd" fill="#ffffff" d="M188.153,65.265c-1.637-1.125-2.869-1.732-3.791-2.65
		c-8.826-8.754-17.615-17.546-26.375-26.371c-1.098-1.107-1.969-2.447-2.945-3.678c-0.367,0.168-0.734,0.335-1.104,0.502
		c0,10.388,0,20.777,0,31.271c-2.542,0-4.502,0-6.642,0c0-15.473,0-30.763,0-47.033c1.645,1.102,2.88,1.676,3.787,2.578
		c9.218,9.156,18.382,18.365,27.568,27.553c0.779,0.783,1.594,1.529,2.928,2.802c0-10.998,0-21.405,0-32.006
		c2.406,0,4.369,0,6.574,0C188.153,33.511,188.153,48.796,188.153,65.265z"/>
	<path fill-rule="evenodd" clip-rule="evenodd" fill="#ffffff" d="M136.258,24.003c-12.753,0-25.359,0-38.186,0
		c0-1.927,0-3.772,0-5.804c12.754,0,25.354,0,38.186,0C136.258,20.143,136.258,21.969,136.258,24.003z"/>
	<path fill-rule="evenodd" clip-rule="evenodd" fill="#ffffff" d="M98.064,44.063c0-1.868,0-3.712,0-5.716
		c12.798,0,25.398,0,38.212,0c0,1.919,0,3.663,0,5.716C123.625,44.063,110.949,44.063,98.064,44.063z"/>
	<path fill-rule="evenodd" clip-rule="evenodd" fill="#ffffff" d="M98.077,64.326c0-1.916,0-3.76,0-5.799
		c12.748,0,25.348,0,38.178,0c0,1.943,0,3.771,0,5.799C123.507,64.326,110.902,64.326,98.077,64.326z"/>
</g>
</svg>
