<?xml version="1.0" encoding="utf-8"?>
<!-- Generator: Adobe Illustrator 16.0.0, SVG Export Plug-In . SVG Version: 6.00 Build 0)  -->
<!DOCTYPE svg PUBLIC "-//W3C//DTD SVG 1.1//EN" "http://www.w3.org/Graphics/SVG/1.1/DTD/svg11.dtd">
<svg version="1.1" id="Layer_1" xmlns="http://www.w3.org/2000/svg" xmlns:xlink="http://www.w3.org/1999/xlink" x="0px" y="0px"
	 width="606.742px" height="324px" viewBox="0 -17.258 606.742 324" enable-background="new 0 -17.258 606.742 324"
	 xml:space="preserve">
<g>
	<path d="M48.436,189.545c-21.924,0-39.761-17.836-39.761-39.759c0-21.922,17.836-39.759,39.761-39.759
		c21.921,0,39.757,17.837,39.757,39.759C88.193,171.709,70.357,189.545,48.436,189.545L48.436,189.545z M48.436,101.354
		C21.728,101.354,0,123.081,0,149.787v78.071h8.675v-50.487c8.756,12.582,23.301,20.85,39.761,20.85
		c26.705,0,48.432-21.728,48.432-48.434S75.141,101.354,48.436,101.354L48.436,101.354z"/>
	<path d="M278.107,188.823c-23.781,0-39.762-15.978-39.762-39.759c0-21.924,17.838-39.76,39.762-39.76
		c21.92,0,39.756,17.836,39.756,39.76C317.863,170.987,300.027,188.823,278.107,188.823L278.107,188.823z M278.107,100.63
		c-16.459,0-31.003,8.267-39.762,20.849V70.992h-8.675v78.072c0,28.517,19.917,48.434,48.437,48.434
		c26.704,0,48.432-21.729,48.432-48.434C326.539,122.356,304.811,100.63,278.107,100.63L278.107,100.63z"/>
	<path d="M391.411,188.823c-23.782,0-39.759-15.978-39.759-39.759c0-21.924,17.836-39.76,39.759-39.76
		c21.924,0,39.76,17.836,39.76,39.76C431.17,170.987,413.334,188.823,391.411,188.823L391.411,188.823z M391.411,100.63
		c-16.458,0-31.004,8.268-39.759,20.85V70.992h-8.677v78.072c0,28.517,19.916,48.434,48.436,48.434
		c26.707,0,48.436-21.729,48.436-48.434C439.846,122.356,418.118,100.63,391.411,100.63L391.411,100.63z"/>
	<path d="M467.167,174.546V70.54h-8.676v104.006c0,12.259,9.971,22.229,22.229,22.229V188.1
		C473.248,188.101,467.167,182.02,467.167,174.546L467.167,174.546z"/>
	<path d="M121.57,150.977c-0.644-9.245,1.87-18.357,7.26-26.054c6.227-8.893,15.541-14.827,26.232-16.712
		c2.375-0.419,4.737-0.62,7.073-0.62c17.921,0,34,11.934,39.022,29.353L121.57,150.977L121.57,150.977z M210.681,139.668
		c-4.724-26.776-30.332-44.71-57.127-40c-12.972,2.288-24.274,9.49-31.83,20.277c-7.554,10.791-10.456,23.878-8.168,36.849
		c2.288,12.97,9.488,24.274,20.279,31.83c8.382,5.87,18.151,8.932,28.18,8.932c2.875-0.002,5.773-0.252,8.666-0.762
		c21.443-3.782,37.67-20.827,40.374-42.412l-0.375-0.047l-8.656,1.525c-3.138,16.561-16.036,29.425-32.851,32.391
		c-20.626,3.638-40.418-9.041-46.095-28.733l88.356-15.579L210.681,139.668L210.681,139.668z"/>
	<path d="M495.665,150.977c-0.644-9.245,1.87-18.357,7.26-26.054c6.228-8.893,15.54-14.827,26.23-16.712
		c2.377-0.419,4.739-0.62,7.073-0.62c17.922,0,34,11.932,39.022,29.353L495.665,150.977L495.665,150.977z M584.774,139.668
		c-4.723-26.778-30.354-44.71-57.126-40c-12.973,2.288-24.276,9.49-31.832,20.28c-7.554,10.788-10.453,23.875-8.161,36.846
		c2.28,12.97,9.485,24.274,20.275,31.83c8.382,5.87,18.152,8.932,28.18,8.932c2.875-0.002,5.772-0.252,8.666-0.762
		c21.443-3.782,37.668-20.827,40.375-42.412l-0.377-0.047l-8.655,1.525c-3.135,16.561-16.034,29.425-32.851,32.391
		c-20.618,3.64-40.42-9.043-46.094-28.733l88.353-15.579L584.774,139.668L584.774,139.668z"/>
	<path d="M600.784,187.704c-0.358-0.199-0.931-0.301-1.72-0.301h-1.214v2.921h1.283c0.602,0,1.054-0.061,1.355-0.181
		c0.553-0.22,0.831-0.64,0.831-1.26C601.321,188.297,601.143,187.904,600.784,187.704L600.784,187.704z M599.25,186.434
		c1.002,0,1.734,0.098,2.2,0.29c0.835,0.349,1.251,1.028,1.251,2.043c0,0.721-0.261,1.25-0.787,1.591
		c-0.276,0.182-0.666,0.312-1.164,0.392c0.63,0.1,1.09,0.364,1.384,0.789c0.291,0.427,0.438,0.843,0.438,1.248v0.591
		c0,0.186,0.008,0.387,0.021,0.6c0.014,0.212,0.036,0.353,0.07,0.419l0.049,0.101h-1.329c-0.008-0.026-0.015-0.055-0.021-0.08
		c-0.008-0.026-0.015-0.058-0.021-0.089l-0.026-0.26v-0.64c0-0.929-0.255-1.544-0.763-1.844c-0.299-0.172-0.827-0.259-1.578-0.259
		h-1.121v3.17h-1.422v-8.062H599.25L599.25,186.434z M594.93,186.024c-1.225,1.233-1.84,2.725-1.84,4.472
		c0,1.761,0.611,3.261,1.83,4.5c1.227,1.239,2.717,1.859,4.47,1.859c1.755,0,3.244-0.62,4.473-1.859
		c1.227-1.239,1.84-2.739,1.84-4.5c0-1.747-0.613-3.237-1.84-4.472c-1.234-1.239-2.724-1.859-4.473-1.859
		C597.65,184.164,596.165,184.784,594.93,186.024L594.93,186.024z M604.59,195.695c-1.432,1.44-3.167,2.16-5.2,2.16
		c-2.032,0-3.764-0.72-5.188-2.16c-1.421-1.434-2.131-3.17-2.131-5.211c0-2.02,0.717-3.745,2.149-5.181
		c1.429-1.426,3.15-2.14,5.17-2.14c2.033,0,3.77,0.714,5.2,2.14c1.436,1.428,2.15,3.154,2.15,5.181
		C606.741,192.518,606.025,194.255,604.59,195.695L604.59,195.695z"/>
</g>
</svg>
